<svg width="818" height="547" viewBox="0 0 818 547" fill="none" xmlns="http://www.w3.org/2000/svg">
<path d="M408.854 78.165C615.536 127.202 743.621 59.9176 746.319 239.765C748.362 375.985 579.775 492.286 387.18 466.637C221.6 444.585 155.285 385.919 106.117 285.317C-4.64279 58.6939 244.003 39.051 408.854 78.165Z" fill="#EBEBEB"/>
<path d="M506.375 38.3882H313.945V306.064H506.375V38.3882Z" fill="#454545"/>
<path d="M496.43 52.2209H323.89V295.117H496.43V52.2209Z" fill="#EBEBEB"/>
<path d="M406.111 240.852H323.89V295.12H406.111V240.852Z" fill="white"/>
<path d="M496.433 240.852H414.213V295.12H496.433V240.852Z" fill="white"/>
<path d="M406.111 180.289H323.89V234.558H406.111V180.289Z" fill="white"/>
<path d="M496.433 180.289H414.213V234.558H496.433V180.289Z" fill="white"/>
<path d="M406.111 119.726H323.89V173.995H406.111V119.726Z" fill="white"/>
<path d="M496.433 119.726H414.213V173.995H496.433V119.726Z" fill="white"/>
<path d="M496.43 53.2412H323.89V107.51H496.43V53.2412Z" fill="white"/>
<path d="M514.82 38.3882H305.503V48.8373H514.82V38.3882Z" fill="#232323"/>
<path d="M380.018 118.054H351.37C350.484 118.054 349.762 117.335 349.762 116.444C349.762 115.557 350.48 114.835 351.37 114.835H380.018C380.904 114.835 381.626 115.554 381.626 116.444C381.623 117.335 380.904 118.054 380.018 118.054Z" fill="#232323"/>
<path d="M473.364 118.054H444.717C443.83 118.054 443.108 117.335 443.108 116.444C443.108 115.557 443.827 114.835 444.717 114.835H473.364C474.251 114.835 474.973 115.554 474.973 116.444C474.973 117.335 474.254 118.054 473.364 118.054Z" fill="#232323"/>
<path d="M321.272 48.8372V113.166" stroke="#1F282D" stroke-width="4" stroke-miterlimit="10"/>
<path d="M499.047 48.8372V113.166" stroke="#1F282D" stroke-width="4" stroke-miterlimit="10"/>
<path d="M513.285 58.0274H307.038L308.821 52.8064H511.501L513.285 58.0274Z" fill="#74DEC9"/>
<path d="M513.285 67.2177H307.038L308.821 61.9932H511.501L513.285 67.2177Z" fill="#74DEC9"/>
<path d="M513.285 76.4047H307.038L308.821 71.1836H511.501L513.285 76.4047Z" fill="#74DEC9"/>
<path d="M513.285 85.5948H307.038L308.821 80.3738H511.501L513.285 85.5948Z" fill="#74DEC9"/>
<path d="M513.285 94.7852H307.038L308.821 89.5642H511.501L513.285 94.7852Z" fill="#74DEC9"/>
<path d="M513.285 103.975H307.038L308.821 98.7544H511.501L513.285 103.975Z" fill="#74DEC9"/>
<path d="M513.285 113.166H307.038L308.821 107.941H511.501L513.285 113.166Z" fill="#74DEC9"/>
<path d="M153.088 112.482C157.282 105.876 159.511 98.183 159.462 90.4899C159.448 88.2669 159.199 85.9597 158.523 83.8278C157.528 80.7 152.548 81.5065 152.695 84.7675C152.695 84.792 152.699 84.8166 152.699 84.8411C152.846 87.79 153.361 90.9878 150.863 93.2775C149.717 94.3294 147.94 94.5784 146.587 93.7789C145.109 92.9059 145.102 91.4261 145.207 90.0762C145.484 86.5172 146.328 82.9967 147.698 79.6692C148.588 77.5127 149.559 74.7181 147.663 73.1998C146.728 72.4495 145.41 72.3372 144.264 72.7545C142.372 73.4453 141.317 75.1038 140.56 76.7729C139.537 79.0345 138.934 81.4609 138.787 83.9119C138.622 86.6013 138.286 90.2094 135.468 90.6582C134.417 90.8265 133.359 90.4584 132.577 89.7746C130.979 88.3826 130.573 86.4225 129.735 84.6623C128.25 81.5416 125.316 79.052 121.858 77.9756C120.803 77.646 119.608 77.4461 118.669 78.4524C118.038 79.1292 117.863 80.0724 118.077 80.949C118.536 82.8284 120.193 83.9961 121.462 85.4021C122.748 86.8257 123.694 88.912 122.184 90.4969C121.619 91.0895 120.824 91.4296 119.986 91.5454C118.014 91.8224 116.226 91.0299 114.429 90.4128C111.829 89.5187 109.099 88.9611 106.337 88.7613C104.403 88.6245 102.136 88.8104 101.049 90.3216C99.3638 92.6639 102.132 95.7636 105.027 96.535C108.202 97.3835 111.825 96.9312 114.488 98.9404C115.077 99.3822 115.54 99.9678 115.736 100.652C116.402 102.976 113.896 104.533 111.636 104.999C109.6 105.417 107.34 105.438 105.707 106.647C104.249 107.727 103.621 109.702 104.207 111.357C104.795 113.012 106.558 114.235 108.419 114.277C110.788 114.33 112.761 112.714 114.695 111.427C116.629 110.14 119.289 109.112 121.269 110.333C123.536 111.728 123.13 115.151 121.336 117.058C119.131 119.4 115.624 120.266 113.062 122.212C112.196 122.868 111.702 123.896 111.857 124.93C112.231 127.476 115.9 127.472 118.241 126.48C120.635 125.463 122.807 123.994 124.588 122.181C126.515 120.217 128.267 117.7 131.063 117.23C134.638 116.627 137.68 119.8 136.667 123.075C135.864 125.666 132.952 127.051 130.443 128.38C127.794 129.783 124.97 132.069 125.66 134.965C125.93 136.105 126.736 137.066 127.794 137.679C129.886 138.889 132.406 138.696 134.62 137.963C140.462 136.028 144.243 130.733 146.815 125.445C148.736 121.494 152.191 117.353 153.214 113.117" fill="#1CAAB8"/>
<path d="M168.142 134.73C168.142 134.73 155.215 98.6808 122.352 99.3189" stroke="#10587C" stroke-width="6" stroke-miterlimit="10"/>
<path d="M187.896 106.728C194.053 108.488 200.602 108.453 206.623 106.63C208.361 106.104 210.113 105.371 211.63 104.347C213.852 102.839 212.065 99.1156 209.542 99.9887C209.524 99.9957 209.503 100.003 209.486 100.01C207.208 100.809 204.818 101.956 202.442 100.525C201.352 99.8695 200.743 98.5335 201.054 97.2818C201.398 95.9178 202.554 95.5706 203.641 95.3392C206.497 94.7326 209.454 94.5783 212.384 94.8799C214.283 95.0762 216.698 95.1919 217.451 93.3511C217.822 92.4429 217.605 91.3805 217.009 90.5775C216.028 89.2521 214.483 88.8068 212.997 88.5999C210.986 88.3229 208.943 88.4105 206.987 88.8629C204.839 89.3573 201.931 89.9288 200.925 87.8215C200.55 87.0325 200.592 86.1208 200.946 85.3459C201.664 83.768 203.108 82.9931 204.296 81.9272C206.399 80.0337 207.671 77.155 207.713 74.192C207.727 73.2874 207.607 72.3021 206.598 71.8007C205.918 71.4641 205.14 71.5447 204.503 71.9164C203.136 72.7123 202.603 74.2867 201.797 75.6086C200.981 76.9481 199.562 78.1753 197.967 77.3583C197.371 77.0533 196.919 76.5063 196.636 75.8751C195.963 74.3884 196.166 72.8 196.236 71.2502C196.334 69.0026 196.138 66.7269 195.651 64.5143C195.311 62.9645 194.635 61.2253 193.201 60.7239C190.976 59.9455 189.186 62.8383 189.249 65.2893C189.319 67.9787 190.517 70.7172 189.557 73.2804C189.347 73.8449 188.993 74.3428 188.506 74.6549C186.838 75.7173 185.033 74.1114 184.146 72.4423C183.347 70.9416 182.808 69.1709 181.476 68.168C180.288 67.2739 178.596 67.2388 177.436 68.0839C176.272 68.9289 175.722 70.598 176.122 72.0672C176.63 73.9396 178.357 75.1142 179.815 76.3345C181.273 77.5547 182.696 79.4061 182.198 81.2434C181.63 83.3473 178.851 83.8206 176.938 82.8564C174.59 81.6712 173.097 79.115 170.974 77.5547C170.259 77.0287 169.337 76.878 168.563 77.2391C166.653 78.1262 167.505 81.005 168.829 82.6109C170.182 84.2554 171.839 85.6194 173.676 86.5977C175.663 87.6567 178.042 88.4456 179.062 90.5354C180.365 93.2038 178.578 96.328 175.778 96.2929C173.56 96.2649 171.797 94.2978 170.175 92.6358C168.461 90.879 166.012 89.1925 163.899 90.4057C163.068 90.8825 162.5 91.7381 162.266 92.7129C161.803 94.6379 162.539 96.57 163.629 98.1408C166.502 102.278 171.534 104.021 176.279 104.814C179.826 105.406 183.873 107.156 187.433 106.977" fill="#1CAAB8"/>
<path d="M174.664 132.251C174.664 132.251 194.105 103.418 193.107 77.9824" stroke="#10587C" stroke-width="6" stroke-miterlimit="10"/>
<path d="M189.872 129.337V151.007C189.872 162.108 181.525 171.257 170.77 172.522C171.608 172.621 172.459 172.677 173.321 172.677C185.281 172.677 194.978 162.974 194.978 151.007V129.337H189.872Z" fill="#B1B0B0"/>
<path d="M189.872 151.007V129.337H151.665V151.007C151.665 162.108 160.012 171.257 170.767 172.522C181.525 171.257 189.872 162.108 189.872 151.007Z" fill="#05374A"/>
<path d="M257.856 144.041C265.394 140.187 269.75 133.626 267.586 129.387C265.421 125.148 257.556 124.837 250.017 128.691C242.479 132.545 238.123 139.105 240.287 143.344C242.452 147.583 250.317 147.895 257.856 144.041Z" fill="#1CAAB8"/>
<path d="M255.595 139.147C262.832 134.836 267.958 130.095 267.043 128.558C266.128 127.02 259.52 129.268 252.282 133.579C245.044 137.89 239.919 142.631 240.833 144.169C241.748 145.706 248.357 143.458 255.595 139.147Z" fill="#1CAAB8" stroke="#10587C" stroke-width="6" stroke-miterlimit="10"/>
<path d="M235.518 127.044C239.021 123.471 237.205 116.003 231.461 110.364C225.716 104.725 218.22 103.051 214.716 106.624C211.213 110.197 213.029 117.665 218.773 123.304C224.517 128.943 232.014 130.618 235.518 127.044Z" fill="#1CAAB8"/>
<path d="M234.492 127.861C235.926 126.64 232.889 120.715 227.71 114.626C222.53 108.538 217.168 104.593 215.735 105.814C214.301 107.036 217.337 112.961 222.517 119.049C227.697 125.138 233.059 129.083 234.492 127.861Z" fill="#1CAAB8" stroke="#10587C" stroke-width="6" stroke-miterlimit="10"/>
<path d="M241.679 153.164C247.787 153.164 252.739 136.9 252.739 116.837C252.739 96.7746 247.787 80.5107 241.679 80.5107C235.571 80.5107 230.62 96.7746 230.62 116.837C230.62 136.9 235.571 153.164 241.679 153.164Z" fill="#1CAAB8"/>
<path d="M241.679 154.215C240.397 154.215 238.925 153.321 237.709 142.644C236.924 135.744 236.489 126.581 236.489 116.841C236.489 107.1 236.92 97.9341 237.709 91.037C238.925 80.36 240.393 79.4658 241.679 79.4658C242.965 79.4658 244.433 80.36 245.649 91.037C246.434 97.9376 246.869 107.1 246.869 116.841C246.869 126.581 246.438 135.747 245.649 142.644C244.43 153.321 242.962 154.215 241.679 154.215Z" fill="#1CAAB8"/>
<path d="M241.679 80.5142C243.964 80.5142 245.814 96.777 245.814 116.841C245.814 136.904 243.964 153.167 241.679 153.167C239.394 153.167 237.544 136.904 237.544 116.841C237.544 96.777 239.394 80.5142 241.679 80.5142ZM241.679 78.4104C239.226 78.4104 238.396 81.5031 238.038 82.8215C237.52 84.7535 237.057 87.4745 236.664 90.9143C235.876 97.8534 235.438 107.058 235.438 116.837C235.438 126.617 235.873 135.824 236.664 142.76C237.057 146.2 237.52 148.924 238.038 150.853C238.392 152.171 239.226 155.264 241.679 155.264C244.132 155.264 244.963 152.171 245.32 150.853C245.839 148.921 246.301 146.2 246.694 142.76C247.482 135.821 247.917 126.617 247.917 116.837C247.917 107.058 247.482 97.8499 246.694 90.9143C246.301 87.4745 245.839 84.75 245.32 82.8215C244.963 81.4995 244.132 78.4104 241.679 78.4104Z" fill="#10587C"/>
<path d="M259.891 144.601V156.705C259.891 162.908 251.544 168.017 240.789 168.721C241.627 168.778 242.478 168.809 243.34 168.809C255.3 168.809 264.997 163.392 264.997 156.705V144.601H259.891Z" fill="#B1B0B0"/>
<path d="M259.891 156.705V144.601H221.684V156.705C221.684 162.908 230.031 168.017 240.786 168.721C251.544 168.017 259.891 162.908 259.891 156.705Z" fill="#05374A"/>
<path d="M221.2 149.682V158.732C221.2 163.371 214.959 167.189 206.917 167.719C207.544 167.761 208.179 167.782 208.827 167.782C217.77 167.782 225.02 163.728 225.02 158.732V149.682H221.2Z" fill="#B1B0B0"/>
<path d="M221.201 158.736V149.686H192.63V158.736C192.63 163.375 198.871 167.194 206.914 167.723C214.959 167.194 221.201 163.372 221.201 158.736Z" fill="#05374A"/>
<path d="M215.593 140.821C215.593 148.56 212.436 150.628 208.543 150.628C204.65 150.628 201.492 148.56 201.492 140.821C201.492 133.082 208.543 126.809 208.543 126.809C208.543 126.809 215.593 133.082 215.593 140.821Z" fill="#10587C"/>
<path d="M198.286 140.509C205.925 139.306 208.459 142.104 209.065 145.951C209.671 149.797 208.119 153.241 200.48 154.443C192.84 155.646 185.548 149.654 185.548 149.654C185.548 149.654 190.647 141.712 198.286 140.509Z" fill="#10587C"/>
<path d="M217.535 154.622C209.836 153.879 208.08 150.537 208.455 146.659C208.83 142.781 211.192 139.836 218.891 140.579C226.59 141.322 232.155 148.945 232.155 148.945C232.155 148.945 225.234 155.365 217.535 154.622Z" fill="#10587C"/>
<path d="M207.555 139.986C212.065 146.68 210.54 149.836 207.173 151.519C203.805 153.202 199.87 152.774 195.36 146.081C190.85 139.387 193.292 130.912 193.292 130.912C193.292 130.912 203.045 133.293 207.555 139.986Z" fill="#1CAAB8"/>
<path d="M209.534 139.986C205.024 146.68 206.549 149.836 209.916 151.519C213.284 153.202 217.219 152.774 221.729 146.081C226.239 139.387 223.797 130.912 223.797 130.912C223.797 130.912 214.044 133.293 209.534 139.986Z" fill="#1CAAB8"/>
<path d="M275.233 172.673H133.401C130.033 172.673 128.719 168.294 131.53 166.439H273.362C276.733 166.439 278.047 170.818 275.233 172.673Z" fill="white"/>
<path d="M276.768 172.673L133.401 193.249V172.673H276.768Z" fill="#B1B0B0"/>
<path d="M605.819 193.982V262.374H439.703V193.982C439.703 188.214 444.377 183.54 450.142 183.54H595.38C601.145 183.54 605.819 188.214 605.819 193.982Z" fill="#232323"/>
<path d="M439.706 262.371V274.941C439.706 280.709 444.377 285.383 450.142 285.383H595.383C601.148 285.383 605.819 280.709 605.819 274.941V262.371H439.706Z" fill="#DEE7EA"/>
<g opacity="0.2">
<path opacity="0.2" d="M556.647 183.54L542.619 222.205C541.246 225.995 536.673 227.478 533.337 225.217L528.991 222.271C519.603 215.907 506.802 218.698 500.915 228.394L480.282 262.371H469.92L505.628 203.565C507.465 200.542 511.456 199.669 514.382 201.654C525.081 208.909 539.742 204.15 544.154 191.997L547.224 183.536H556.647V183.54Z" fill="white"/>
</g>
<path d="M522.761 277.511C524.766 277.511 526.391 275.885 526.391 273.879C526.391 271.872 524.766 270.246 522.761 270.246C520.756 270.246 519.13 271.872 519.13 273.879C519.13 275.885 520.756 277.511 522.761 277.511Z" fill="#1F282D"/>
<path d="M504.749 285.383V295.671C504.749 299.507 501.641 302.617 497.807 302.617H488.864V306.05H504.749H533.477C537.507 306.05 540.773 302.782 540.773 298.75V285.38H504.749V285.383Z" fill="#232323"/>
<path d="M530.456 302.621H488.864V306.054H530.456V302.621Z" fill="#DEE7EA"/>
<path d="M530.456 302.621V306.054H533.929C537.71 306.054 540.773 302.989 540.773 299.206V298.301V285.383H537.931V297.824C537.931 300.471 535.786 302.617 533.14 302.617H530.456V302.621Z" fill="#DEE7EA"/>
<path d="M641.587 245.999C637.175 239.049 634.827 230.953 634.88 222.864C634.894 220.525 635.157 218.099 635.868 215.855C636.916 212.562 642.155 213.411 642 216.843C642 216.868 641.997 216.896 641.997 216.92C641.843 220.02 641.303 223.386 643.931 225.799C645.137 226.903 647.005 227.17 648.431 226.328C649.987 225.409 649.994 223.853 649.882 222.433C649.591 218.688 648.701 214.985 647.26 211.482C646.325 209.213 645.301 206.275 647.295 204.676C648.28 203.887 649.668 203.768 650.873 204.21C652.864 204.936 653.975 206.678 654.77 208.438C655.846 210.816 656.48 213.368 656.638 215.949C656.809 218.779 657.167 222.576 660.128 223.05C661.235 223.225 662.346 222.839 663.17 222.12C664.848 220.658 665.279 218.597 666.162 216.742C667.729 213.456 670.809 210.84 674.45 209.708C675.561 209.361 676.819 209.15 677.804 210.213C678.466 210.928 678.652 211.917 678.427 212.839C677.947 214.817 676.202 216.047 674.867 217.524C673.514 219.021 672.519 221.216 674.107 222.885C674.699 223.509 675.54 223.867 676.419 223.989C678.497 224.28 680.376 223.446 682.265 222.797C684.998 221.854 687.871 221.268 690.776 221.062C692.812 220.918 695.199 221.114 696.341 222.703C698.114 225.164 695.202 228.429 692.157 229.242C688.818 230.133 685.005 229.656 682.201 231.774C681.585 232.24 681.098 232.854 680.891 233.572C680.194 236.02 682.829 237.657 685.205 238.145C687.346 238.583 689.722 238.604 691.442 239.88C692.977 241.02 693.636 243.092 693.019 244.835C692.399 246.578 690.545 247.865 688.59 247.907C686.098 247.963 684.02 246.262 681.988 244.905C679.955 243.552 677.155 242.472 675.07 243.755C672.687 245.224 673.115 248.822 675 250.827C677.317 253.292 681.01 254.204 683.705 256.252C684.616 256.943 685.135 258.023 684.973 259.11C684.577 261.788 680.719 261.785 678.256 260.74C675.74 259.671 673.451 258.124 671.58 256.217C669.551 254.152 667.711 251.504 664.764 251.006C661.004 250.372 657.805 253.713 658.87 257.157C659.715 259.881 662.777 261.34 665.416 262.739C668.205 264.215 671.174 266.62 670.448 269.667C670.164 270.867 669.316 271.88 668.202 272.522C666.001 273.794 663.348 273.591 661.018 272.82C654.875 270.782 650.894 265.214 648.189 259.65C646.167 255.491 642.537 251.136 641.457 246.679" fill="#1CAAB8"/>
<path d="M625.751 269.404C625.751 269.404 639.352 231.479 673.928 232.152" stroke="#10587C" stroke-width="6" stroke-miterlimit="10"/>
<path d="M614.814 254.488C617.86 249.688 619.482 244.099 619.444 238.513C619.433 236.9 619.254 235.224 618.76 233.674C618.038 231.402 614.419 231.988 614.527 234.358C614.527 234.375 614.527 234.393 614.531 234.41C614.636 236.553 615.011 238.874 613.196 240.54C612.365 241.304 611.072 241.486 610.087 240.904C609.015 240.27 609.008 239.197 609.085 238.215C609.288 235.631 608.451 227.058 607.074 225.953C606.394 225.409 605.437 225.325 604.603 225.63C603.229 226.132 602.462 227.335 601.912 228.551C601.169 230.192 604.053 238.31 602.006 238.639C601.242 238.762 600.475 238.492 599.907 237.998C598.747 236.988 598.453 235.564 597.843 234.284C596.764 232.016 594.633 230.21 592.121 229.428C591.353 229.189 590.484 229.042 589.805 229.775C589.345 230.269 589.219 230.95 589.374 231.588C589.706 232.952 590.912 233.804 591.834 234.821C592.769 235.855 593.456 237.37 592.359 238.523C591.949 238.955 591.371 239.2 590.761 239.284C589.328 239.484 588.028 238.909 586.724 238.46C584.836 237.808 582.852 237.405 580.848 237.261C579.442 237.159 577.795 237.3 577.007 238.394C575.784 240.094 577.795 242.345 579.898 242.91C582.204 243.527 584.835 243.198 586.773 244.66C587.201 244.982 587.537 245.407 587.677 245.901C588.161 247.591 586.339 248.72 584.699 249.06C583.22 249.365 581.58 249.376 580.392 250.259C579.33 251.045 578.875 252.479 579.302 253.682C579.73 254.884 581.012 255.772 582.361 255.803C584.082 255.842 585.515 254.667 586.921 253.731C588.326 252.795 590.257 252.051 591.697 252.935C593.344 253.948 593.046 256.434 591.746 257.819C590.144 259.52 587.597 260.151 585.736 261.564C585.109 262.041 584.748 262.788 584.86 263.538C585.133 265.39 587.797 265.386 589.5 264.664C591.238 263.927 592.815 262.858 594.108 261.54C595.509 260.116 596.782 258.286 598.814 257.942C601.411 257.504 603.618 259.811 602.882 262.188C602.301 264.071 600.184 265.078 598.362 266.042C596.438 267.062 594.385 268.721 594.886 270.825C595.082 271.652 595.667 272.35 596.438 272.795C597.959 273.675 599.788 273.535 601.397 273.002C605.64 271.596 608.388 267.749 610.255 263.906C611.65 261.035 614.159 258.03 614.902 254.951" fill="#1CAAB8"/>
<path d="M625.751 270.649C625.751 270.649 616.36 244.463 592.485 244.926" stroke="#10587C" stroke-width="6" stroke-miterlimit="10"/>
<path d="M610.854 269.405V288.911C610.854 298.904 618.368 307.137 628.05 308.277C627.296 308.364 626.529 308.417 625.751 308.417C614.986 308.417 606.257 299.682 606.257 288.911V269.405H610.854Z" fill="#B1B0B0"/>
<path d="M610.854 288.911V269.405H645.245V288.911C645.245 298.904 637.732 307.137 628.05 308.277C618.368 307.137 610.854 298.904 610.854 288.911Z" fill="#05374A"/>
<path d="M205.498 243.576H86.5592C83.7347 243.576 82.6309 239.197 84.9892 237.342H203.928C206.756 237.342 207.856 241.722 205.498 243.576Z" fill="white"/>
<path d="M206.784 243.576L86.5593 264.152V243.576H206.784Z" fill="#B1B0B0"/>
<path d="M181.175 237.341L197.022 237.341L197.022 191.189L181.175 191.189L181.175 237.341Z" fill="#74DEC9"/>
<path d="M175.192 237.341L183.115 237.341L183.115 191.189L175.192 191.189L175.192 237.341Z" fill="#454545"/>
<path d="M167.216 237.341L175.139 237.341L175.139 191.172L167.216 191.172L167.216 237.341Z" fill="#74DEC9"/>
<path d="M167.217 191.173L141.208 237.342H167.217V191.173Z" fill="#232323"/>
<path d="M125.453 237.342L141.3 237.342L141.3 202.993L125.453 202.993L125.453 237.342Z" fill="#74DEC9"/>
<path d="M119.47 237.342L127.393 237.342L127.393 202.993L119.47 202.993L119.47 237.342Z" fill="#454545"/>
<path d="M119.471 202.99L93.4626 237.342H119.471V202.99Z" fill="#232323"/>
<path d="M410 536.176C601.051 536.176 755.928 509.502 755.928 476.598C755.928 443.695 601.051 417.021 410 417.021C218.949 417.021 64.0723 443.695 64.0723 476.598C64.0723 509.502 218.949 536.176 410 536.176Z" fill="#B1B0B0"/>
<path d="M410 520.229C572.282 520.229 703.837 500.695 703.837 476.598C703.837 452.502 572.282 432.968 410 432.968C247.719 432.968 116.163 452.502 116.163 476.598C116.163 500.695 247.719 520.229 410 520.229Z" fill="#DEE7EA"/>
<path d="M207.874 284.12C209.628 280.609 205.955 275.214 199.67 272.069C193.385 268.925 186.867 269.222 185.113 272.733C183.358 276.243 187.031 281.639 193.317 284.783C199.602 287.928 206.119 287.631 207.874 284.12Z" fill="#1CAAB8"/>
<path d="M207.394 284.852C208.142 283.58 203.864 279.675 197.84 276.131C191.816 272.587 186.326 270.746 185.579 272.018C184.831 273.29 189.109 277.194 195.133 280.738C201.157 284.282 206.647 286.124 207.394 284.852Z" fill="#1CAAB8" stroke="#10587C" stroke-width="6" stroke-miterlimit="10"/>
<path d="M225.667 267.802C230.481 263.195 232.064 257.033 229.203 254.04C226.341 251.046 220.119 252.354 215.305 256.962C210.49 261.569 208.907 267.731 211.769 270.724C214.63 273.718 220.852 272.41 225.667 267.802Z" fill="#1CAAB8"/>
<path d="M222.628 264.228C226.942 259.221 229.482 254.335 228.301 253.316C227.119 252.297 222.664 255.53 218.349 260.537C214.035 265.545 211.495 270.43 212.676 271.449C213.858 272.469 218.313 269.236 222.628 264.228Z" fill="#1CAAB8" stroke="#10587C" stroke-width="6" stroke-miterlimit="10"/>
<path d="M206.707 292.259C211.789 292.259 215.909 278.878 215.909 262.371C215.909 245.864 211.789 232.482 206.707 232.482C201.624 232.482 197.504 245.864 197.504 262.371C197.504 278.878 201.624 292.259 206.707 292.259Z" fill="#1CAAB8"/>
<path d="M206.707 293.315C205.564 293.315 204.257 292.568 203.23 283.63C202.575 277.946 202.214 270.397 202.214 262.374C202.214 254.351 202.575 246.802 203.23 241.118C204.261 232.18 205.564 231.434 206.707 231.434C207.849 231.434 209.156 232.18 210.183 241.118C210.838 246.802 211.199 254.351 211.199 262.374C211.199 270.397 210.838 277.946 210.183 283.63C209.153 292.564 207.849 293.315 206.707 293.315Z" fill="#1CAAB8"/>
<path d="M206.707 232.482C208.606 232.482 210.148 245.866 210.148 262.371C210.148 278.879 208.606 292.259 206.707 292.259C204.807 292.259 203.265 278.875 203.265 262.371C203.265 245.862 204.804 232.482 206.707 232.482ZM206.707 230.378C204.401 230.378 203.654 233.11 203.339 234.277C202.901 235.883 202.512 238.145 202.186 240.996C201.527 246.718 201.163 254.309 201.163 262.371C201.163 270.432 201.527 278.023 202.186 283.746C202.515 286.596 202.901 288.855 203.339 290.464C203.658 291.632 204.401 294.363 206.707 294.363C209.012 294.363 209.759 291.632 210.074 290.464C210.512 288.858 210.901 286.596 211.227 283.746C211.886 278.023 212.25 270.432 212.25 262.371C212.25 254.309 211.886 246.718 211.227 240.996C210.898 238.145 210.512 235.887 210.074 234.277C209.755 233.11 209.012 230.378 206.707 230.378Z" fill="#10587C"/>
<path d="M223.064 282.845V294.949C223.064 301.152 214.717 306.261 203.963 306.965C204.8 307.021 205.652 307.053 206.514 307.053C218.474 307.053 228.17 301.636 228.17 294.949V282.845H223.064Z" fill="#B1B0B0"/>
<path d="M223.064 294.949V282.845H184.857V294.949C184.857 301.152 193.205 306.261 203.959 306.965C214.717 306.261 223.064 301.152 223.064 294.949Z" fill="#05374A"/>
<path d="M657.447 309.514H537.506V473.299H657.447V309.514Z" fill="#05374A"/>
<path d="M283.173 309.514H163.233V473.299H283.173V309.514Z" fill="#05374A"/>
<path d="M276.074 321.355H169.439V364.768H276.074V321.355Z" fill="#74DEC9"/>
<path d="M276.074 375.621H169.439V419.033H276.074V375.621Z" fill="#74DEC9"/>
<path d="M276.074 429.882H169.439V473.295H276.074V429.882Z" fill="#74DEC9"/>
<path d="M650.796 321.355H544.161V364.768H650.796V321.355Z" fill="#74DEC9"/>
<path d="M650.796 375.621H544.161V419.033H650.796V375.621Z" fill="#74DEC9"/>
<path d="M650.796 429.882H544.161V473.295H650.796V429.882Z" fill="#74DEC9"/>
<path d="M654.458 312.972H165.777C164.372 312.972 163.233 311.832 163.233 310.426V308.596C163.233 307.19 164.372 306.05 165.777 306.05H654.458C655.863 306.05 657.002 307.19 657.002 308.596V310.426C657.002 311.832 655.863 312.972 654.458 312.972Z" fill="#232323"/>
<path d="M311.211 306.159H253.282C253.282 299.055 259.036 293.297 266.136 293.297H298.358C305.454 293.297 311.211 299.055 311.211 306.159Z" fill="#232323"/>
<path d="M282.245 219.761V293.297" stroke="#232323" stroke-width="9" stroke-miterlimit="10" stroke-linecap="round"/>
<path d="M310.114 182.26C301 184.802 291.626 186.071 282.245 186.071C272.868 186.071 263.49 184.802 254.375 182.26C263.49 179.71 272.864 178.441 282.245 178.441C291.626 178.441 301 179.71 310.114 182.26Z" fill="#454545"/>
<path d="M310.114 182.26V224.775H310.1C310.104 224.775 310.111 224.779 310.114 224.779C301 227.321 291.626 228.59 282.245 228.59C272.868 228.59 263.49 227.321 254.375 224.779C254.379 224.779 254.386 224.775 254.389 224.775H254.375V182.26C263.49 184.802 272.864 186.071 282.245 186.071C291.626 186.071 301 184.802 310.114 182.26Z" fill="white"/>
<path d="M266.777 259.636H263.918C261.419 275.008 261.419 290.681 263.918 306.054H266.777C264.279 290.681 264.279 275.008 266.777 259.636Z" fill="#B1B0B0"/>
<path d="M263.918 259.636H244.476C246.974 275.008 246.974 290.681 244.476 306.054H263.918C261.419 290.681 261.419 275.008 263.918 259.636Z" fill="#05374A"/>
<path d="M262.677 252.451C262.677 261.442 259.52 263.847 255.626 263.847C251.733 263.847 248.576 261.442 248.576 252.451C248.576 243.461 255.626 236.174 255.626 236.174C255.626 236.174 262.677 243.461 262.677 252.451Z" fill="#10587C"/>
<path d="M254.635 251.48C259.145 259.257 257.62 262.921 254.253 264.874C250.885 266.831 246.95 266.333 242.44 258.559C237.93 250.782 240.372 240.939 240.372 240.939C240.372 240.939 250.128 243.706 254.635 251.48Z" fill="#1CAAB8"/>
<path d="M256.618 251.48C252.108 259.257 253.633 262.921 257 264.874C260.368 266.831 264.303 266.333 268.813 258.559C273.323 250.785 270.881 240.939 270.881 240.939C270.881 240.939 261.128 243.706 256.618 251.48Z" fill="#1CAAB8"/>
<path d="M252.066 288.122V297.172C252.066 301.811 245.825 305.629 237.783 306.159C238.41 306.201 239.044 306.222 239.693 306.222C248.635 306.222 255.886 302.168 255.886 297.172V288.122H252.066Z" fill="#B1B0B0"/>
<path d="M252.066 297.172V288.122H223.496V297.172C223.496 301.811 229.737 305.629 237.779 306.159C245.825 305.629 252.066 301.811 252.066 297.172Z" fill="#05374A"/>
<path d="M246.456 279.261C246.456 287 243.299 289.069 239.405 289.069C235.512 289.069 232.355 287 232.355 279.261C232.355 271.522 239.405 265.25 239.405 265.25C239.405 265.25 246.456 271.522 246.456 279.261Z" fill="#10587C"/>
<path d="M229.152 278.945C236.791 277.743 239.325 280.541 239.931 284.387C240.537 288.237 238.985 291.677 231.345 292.88C223.706 294.083 216.414 288.09 216.414 288.09C216.414 288.09 221.512 280.152 229.152 278.945Z" fill="#10587C"/>
<path d="M248.397 293.062C240.698 292.319 238.942 288.977 239.317 285.099C239.692 281.221 242.054 278.276 249.753 279.019C257.452 279.763 263.017 287.385 263.017 287.385C263.017 287.385 256.096 293.806 248.397 293.062Z" fill="#10587C"/>
<path d="M238.417 278.427C242.927 285.12 241.403 288.276 238.035 289.959C234.667 291.642 230.732 291.215 226.222 284.521C221.712 277.827 224.154 269.352 224.154 269.352C224.154 269.352 233.907 271.733 238.417 278.427Z" fill="#1CAAB8"/>
<path d="M240.397 278.427C235.887 285.12 237.411 288.276 240.779 289.959C244.146 291.642 248.082 291.215 252.592 284.521C257.102 277.827 254.659 269.352 254.659 269.352C254.659 269.352 244.907 271.733 240.397 278.427Z" fill="#1CAAB8"/>
<path d="M567.91 122.167H709.742C713.109 122.167 714.423 117.787 711.613 115.932H569.781C566.41 115.932 565.099 120.312 567.91 122.167Z" fill="white"/>
<path d="M566.378 122.167L709.742 142.742V122.167H566.378Z" fill="#B1B0B0"/>
<path d="M592.488 69.781H576.642V115.932H592.488V69.781Z" fill="#74DEC9"/>
<path d="M598.471 69.781H590.547V115.932H598.471V69.781Z" fill="#454545"/>
<path d="M625.011 81.5837H609.165V115.933H625.011V81.5837Z" fill="#74DEC9"/>
<path d="M630.993 81.5837H623.07V115.933H630.993V81.5837Z" fill="#454545"/>
<path d="M609.162 69.781H598.47V115.932H609.162V69.781Z" fill="#EBEBEB"/>
<path d="M609.165 69.781L619.447 81.5836H609.165V69.781Z" fill="#B1B0B0"/>
<path d="M630.993 81.5837L657.002 115.933H630.993V81.5837Z" fill="#B1B0B0"/>
<path d="M671.846 81.5837H656V115.933H671.846V81.5837Z" fill="#74DEC9"/>
<path d="M677.831 81.5837H669.908V115.933H677.831V81.5837Z" fill="#454545"/>
<path d="M677.832 81.5837L703.837 115.933H677.832V81.5837Z" fill="#B1B0B0"/>
<path d="M547.424 140.225L570.965 129.18L594.511 140.225" stroke="#232323" stroke-width="3" stroke-miterlimit="10" stroke-linecap="round"/>
<path d="M598.471 138.822H543.46V177.484H598.471V138.822Z" fill="#F4F4F4"/>
<path d="M593.845 142.742H548.09V173.564H593.845V142.742Z" fill="#74DEC9"/>
<path d="M548.09 173.564L567.164 159.166L580.091 167.315L593.845 142.742V173.564H548.09Z" fill="#454545"/>
<path d="M611.854 156.284L638.472 143.794L665.09 156.284" stroke="#232323" stroke-width="3" stroke-miterlimit="10" stroke-linecap="round"/>
<path d="M669.569 154.699H607.375V198.41H669.569V154.699Z" fill="#F4F4F4"/>
<path d="M664.337 159.128H612.61V193.975H664.337V159.128Z" fill="#74DEC9"/>
<path d="M612.61 193.975L634.176 177.698L648.789 186.909L664.337 159.128V193.975H612.61Z" fill="#454545"/>
<path d="M605.164 443.558L599.129 465.518L620.702 460.045L607.34 443.116C606.706 442.316 605.434 442.576 605.164 443.558Z" fill="#232323"/>
<path d="M640.557 480.897C640.557 464.884 630.374 451.899 617.814 451.899C605.255 451.899 595.072 464.88 595.072 480.897C595.072 482.107 595.135 483.296 595.25 484.463H640.382C640.494 483.292 640.557 482.104 640.557 480.897Z" fill="#232323"/>
<path d="M648.389 472.387V474.575C648.389 475.185 648.333 475.785 648.221 476.363L643.024 468.179H644.184C646.497 468.179 648.389 470.073 648.389 472.387Z" fill="#05374A"/>
<path d="M648.221 476.363C647.376 480.957 642.996 486.206 638.174 486.206L614.422 484.463C612.109 484.463 610.217 482.57 610.217 480.256V472.387C610.217 470.073 612.109 468.179 614.422 468.179H643.024L648.221 476.363Z" fill="#232323"/>
<path d="M622.506 443.158L608.77 459.68L630.209 465.799L624.668 443.652C624.42 442.663 623.158 442.376 622.506 443.158Z" fill="#232323"/>
<path d="M624.731 483.131L614.082 479.148C609.123 477.293 605.055 473.734 602.241 469.249C600.951 467.191 598.912 465.578 596.326 464.884C586.643 462.282 572.872 458.6 561.336 455.585C546.351 451.664 534.202 462.741 530.382 474.712C529.454 477.615 529.016 480.571 529.149 483.38C529.538 491.764 534.987 498.822 547.588 499.215C548.268 499.236 548.948 499.19 549.617 499.078L589.149 492.398C589.98 494.334 591.903 495.691 594.143 495.691H628.688C630.433 495.691 631.849 494.274 631.849 492.528V490.256C631.852 486.322 629.22 484.726 624.731 483.131Z" fill="#232323"/>
<path d="M594.115 499.232H548.706C544.876 499.232 541.743 496.098 541.743 492.265V490.102C541.743 489.923 541.75 489.712 541.768 489.47C542.497 478.061 554.898 471.318 564.941 476.77L583.651 486.928C585.102 486.928 587.271 487.384 589.408 487.949C593.508 489.032 596.347 492.763 596.347 497.006C596.343 498.233 595.345 499.232 594.115 499.232Z" fill="#232323"/>
<path d="M529.149 483.38C502.198 477.763 513.53 441.604 513.53 441.604C518.307 467.766 527.061 473.474 530.383 474.712C529.454 477.615 529.016 480.571 529.149 483.38Z" fill="#232323"/>
<path d="M346.783 233.562V247.458H331.56V224.975C336.193 235.47 345.528 233.832 346.783 233.562Z" fill="#EEBDAF"/>
<path d="M426.635 494.085H395.962L360.169 391.358L400.402 391.007L426.635 494.085Z" fill="#05374A"/>
<path d="M348.766 356.248C348.766 356.248 421.206 356.248 432.841 371.816C439.579 380.831 474.012 494.085 474.012 494.085H441.419L407.48 408.262C406.457 405.674 404.078 403.868 401.309 403.581L336.771 396.863L348.766 356.248Z" fill="#10587C"/>
<path d="M341.425 229.586H338.292C326.98 229.586 317.81 220.41 317.81 209.091V183.284C317.81 178.045 322.053 173.799 327.289 173.799H352.425C357.66 173.799 361.904 178.045 361.904 183.284V209.091C361.904 220.41 352.733 229.586 341.425 229.586Z" fill="#EEBDAF"/>
<path d="M364.795 191.534H352.025C344.947 191.534 337.903 192.565 331.119 194.595L332.359 226.588C331.981 229.691 330.18 233.976 328.575 236.465C311.323 235.978 300.856 230.722 294.65 225.431C310.528 205.504 308.513 197.274 311.33 178.087C314.351 157.487 332.198 158.634 343.636 161.207C355.074 163.785 365.941 172.656 364.795 191.534Z" fill="#232323"/>
<path d="M331.263 208.986C334.15 208.986 336.491 206.232 336.491 202.836C336.491 199.439 334.15 196.685 331.263 196.685C328.375 196.685 326.034 199.439 326.034 202.836C326.034 206.232 328.375 208.986 331.263 208.986Z" fill="#EEBDAF"/>
<path d="M358.368 200.896C358.368 202.415 356.49 203.053 354.173 203.053C351.857 203.053 348.98 200.896 348.98 200.896C348.98 200.896 351.896 198.722 354.208 198.722C356.528 198.722 358.368 199.378 358.368 200.896Z" fill="white"/>
<path d="M355.519 203.053C356.715 203.053 357.685 202.082 357.685 200.886C357.685 199.689 356.715 198.719 355.519 198.719C354.323 198.719 353.354 199.689 353.354 200.886C353.354 202.082 354.323 203.053 355.519 203.053Z" fill="#454545"/>
<path d="M346.783 195.97C346.783 195.97 353.36 192.109 359.076 193.54" stroke="#232323" stroke-width="3" stroke-miterlimit="10" stroke-linecap="round"/>
<path d="M348.98 200.897C348.98 200.897 354.608 196.279 358.256 200.297" stroke="#232323" stroke-width="3" stroke-miterlimit="10" stroke-linecap="round"/>
<path d="M346.783 228.874V233.562C345.528 233.832 336.193 235.47 331.56 224.975V221.528L333.316 223.229C335.881 224.978 340.156 227.215 346.783 228.874Z" fill="#232323"/>
<path d="M346.783 223.229V228.874C340.157 227.216 335.881 224.978 333.316 223.229H346.783Z" fill="#EEBDAF"/>
<path d="M350.501 215.851C350.501 215.851 350.957 218.856 355.519 219.572" stroke="#232323" stroke-width="3" stroke-miterlimit="10" stroke-linecap="round"/>
<path d="M348.98 213.681C351.572 213.681 353.672 211.579 353.672 208.986C353.672 206.393 351.572 204.291 348.98 204.291C346.389 204.291 344.288 206.393 344.288 208.986C344.288 211.579 346.389 213.681 348.98 213.681Z" fill="#D7A99D"/>
<path d="M322.102 163.164C322.102 163.164 310.398 167.466 308.761 183.431C305.52 214.996 292.561 222.815 292.561 222.815" stroke="#232323" stroke-width="3" stroke-miterlimit="10" stroke-linecap="round"/>
<path d="M330.439 209.992C330.439 209.992 334.301 225.799 332.394 236.466" stroke="#232323" stroke-width="3" stroke-miterlimit="10" stroke-linecap="round"/>
<path d="M348.98 387.69L332.174 396.863C312.522 396.863 296.749 380.624 297.313 360.968L299.209 267.999C299.717 254.506 318.065 237.857 331.56 237.857L346.923 241.045C359.079 243.499 373.829 254.506 374.337 267.999C374.337 267.999 393.411 321.359 393.411 360.024C393.411 364.768 384.766 375.039 348.98 387.69Z" fill="#05374A"/>
<path d="M404.333 273.402L397.062 299.111L390.428 295.997L397.574 266.912C401.484 270.555 404.333 273.402 404.333 273.402Z" fill="#B1B0B0"/>
<path d="M397.574 266.912L390.429 295.997L370.23 286.516L350.501 241.988C350.501 241.988 371.944 248.058 380.091 252.697C384.811 255.383 392.195 261.901 397.574 266.912Z" fill="#05374A"/>
<path d="M404.334 273.402L430.36 291.456L484.021 299.114L504.749 306.054L433.195 309.378C428.79 309.581 424.389 308.922 420.236 307.432L397.062 299.111L404.334 273.402Z" fill="#EEBDAF"/>
<path d="M393.817 508.402L395.534 494.085H428.127L438.437 497.111C443.312 498.542 445.547 504.176 442.979 508.563L393.817 508.402Z" fill="#1F282D"/>
<path d="M439.706 508.402L441.423 494.085H474.016L484.326 497.111C489.2 498.542 491.436 504.176 488.867 508.563L439.706 508.402Z" fill="#232323"/>
<path d="M326.693 407.852L324.012 417.021" stroke="#232323" stroke-width="6" stroke-miterlimit="10"/>
<path d="M355.698 417.021L353.021 407.852" stroke="#232323" stroke-width="6" stroke-miterlimit="10"/>
<path d="M319.478 451.591L367.693 473.295" stroke="#232323" stroke-width="6" stroke-miterlimit="10"/>
<path d="M360.236 451.591L312.021 473.295" stroke="#232323" stroke-width="6" stroke-miterlimit="10"/>
<path d="M295.147 510.572C291.009 509.292 288.692 504.902 289.968 500.761L315.987 416.439C316.282 415.481 317.298 414.945 318.255 415.239L329.773 418.798C330.73 419.093 331.266 420.11 330.972 421.067L304.952 505.389C303.673 509.53 299.282 511.852 295.147 510.572Z" fill="#1CAAB8"/>
<path d="M384.566 510.572C388.704 509.292 391.021 504.902 389.745 500.761L363.726 416.439C363.432 415.481 362.415 414.945 361.459 415.239L349.94 418.798C348.983 419.093 348.447 420.11 348.742 421.067L374.761 505.389C376.04 509.53 380.431 511.852 384.566 510.572Z" fill="#1CAAB8"/>
<path d="M406.496 399.629C406.496 401.901 405.574 403.956 404.088 405.443C402.602 406.929 400.549 407.852 398.278 407.852H317.2C303.726 407.852 291.661 401.435 284.018 391.407C279.252 385.155 276.207 377.5 275.597 369.116L272.37 324.224C270.449 297.578 291.538 274.906 318.233 274.906H342.494C369.189 274.906 390.278 297.578 388.361 324.224C388.361 324.224 376.233 399.534 403.23 398.328C405.371 398.23 406.496 399.187 406.496 399.629Z" fill="#232323"/>
<path d="M398.583 407.852H317.2C303.726 407.852 291.661 401.435 284.018 391.406C279.252 385.155 276.207 377.5 275.597 369.116L272.37 324.224C270.449 297.578 291.538 274.906 318.233 274.906H333.484C360.18 274.906 381.731 297.614 379.352 324.224C376.327 358.05 377.372 376.69 381.282 388.948C387.422 408.185 399.971 407.852 398.583 407.852Z" fill="#454545"/>
</svg>
